<?xml version="1.0" encoding="UTF-8" standalone="no"?>
<!DOCTYPE svg PUBLIC "-//W3C//DTD SVG 1.1//EN"
 "http://www.w3.org/Graphics/SVG/1.1/DTD/svg11.dtd">
<!-- Generated by graphviz version 2.40.1 (20161225.0304)
 -->
<!-- Title: Tree Pages: 1 -->
<svg width="634pt" height="467pt"
 viewBox="0.00 0.00 634.23 467.20" xmlns="http://www.w3.org/2000/svg" xmlns:xlink="http://www.w3.org/1999/xlink">
<g id="graph0" class="graph" transform="scale(1 1) rotate(0) translate(4 463.2)">
<title>Tree</title>
<polygon fill="#ffffff" stroke="transparent" points="-4,4 -4,-463.2 630.2292,-463.2 630.2292,4 -4,4"/>
<!-- 0 -->
<g id="node1" class="node">
<title>0</title>
<path fill="#e5fad7" stroke="#000000" d="M452.344,-459.2C452.344,-459.2 332.8852,-459.2 332.8852,-459.2 326.8852,-459.2 320.8852,-453.2 320.8852,-447.2 320.8852,-447.2 320.8852,-379.2 320.8852,-379.2 320.8852,-373.2 326.8852,-367.2 332.8852,-367.2 332.8852,-367.2 452.344,-367.2 452.344,-367.2 458.344,-367.2 464.344,-373.2 464.344,-379.2 464.344,-379.2 464.344,-447.2 464.344,-447.2 464.344,-453.2 458.344,-459.2 452.344,-459.2"/>
<text text-anchor="middle" x="392.6146" y="-442.6" font-family="Helvetica,sans-Serif" font-size="14.00" fill="#000000">age &lt;= 30.5</text>
<text text-anchor="middle" x="392.6146" y="-425.8" font-family="Helvetica,sans-Serif" font-size="14.00" fill="#000000">gini = 0.778</text>
<text text-anchor="middle" x="392.6146" y="-409" font-family="Helvetica,sans-Serif" font-size="14.00" fill="#000000">samples = 18</text>
<text text-anchor="middle" x="392.6146" y="-392.2" font-family="Helvetica,sans-Serif" font-size="14.00" fill="#000000">value = [3, 6, 3, 3, 3]</text>
<text text-anchor="middle" x="392.6146" y="-375.4" font-family="Helvetica,sans-Serif" font-size="14.00" fill="#000000">class = Classical</text>
</g>
<!-- 1 -->
<g id="node2" class="node">
<title>1</title>
<path fill="#ffffff" stroke="#000000" d="M372.344,-331.2C372.344,-331.2 252.8852,-331.2 252.8852,-331.2 246.8852,-331.2 240.8852,-325.2 240.8852,-319.2 240.8852,-319.2 240.8852,-251.2 240.8852,-251.2 240.8852,-245.2 246.8852,-239.2 252.8852,-239.2 252.8852,-239.2 372.344,-239.2 372.344,-239.2 378.344,-239.2 384.344,-245.2 384.344,-251.2 384.344,-251.2 384.344,-319.2 384.344,-319.2 384.344,-325.2 378.344,-331.2 372.344,-331.2"/>
<text text-anchor="middle" x="312.6146" y="-314.6" font-family="Helvetica,sans-Serif" font-size="14.00" fill="#000000">age &lt;= 25.5</text>
<text text-anchor="middle" x="312.6146" y="-297.8" font-family="Helvetica,sans-Serif" font-size="14.00" fill="#000000">gini = 0.75</text>
<text text-anchor="middle" x="312.6146" y="-281" font-family="Helvetica,sans-Serif" font-size="14.00" fill="#000000">samples = 12</text>
<text text-anchor="middle" x="312.6146" y="-264.2" font-family="Helvetica,sans-Serif" font-size="14.00" fill="#000000">value = [3, 0, 3, 3, 3]</text>
<text text-anchor="middle" x="312.6146" y="-247.4" font-family="Helvetica,sans-Serif" font-size="14.00" fill="#000000">class = Acoustic</text>
</g>
<!-- 0&#45;&gt;1 -->
<g id="edge1" class="edge">
<title>0&#45;&gt;1</title>
<path fill="none" stroke="#000000" d="M363.7328,-366.9891C358.2383,-358.1979 352.4398,-348.9202 346.7989,-339.8949"/>
<polygon fill="#000000" stroke="#000000" points="349.7221,-337.9681 341.454,-331.3431 343.7861,-341.6781 349.7221,-337.9681"/>
<text text-anchor="middle" x="335.8326" y="-351.5029" font-family="Helvetica,sans-Serif" font-size="14.00" fill="#000000">True</text>
</g>
<!-- 8 -->
<g id="node9" class="node">
<title>8</title>
<path fill="#7be539" stroke="#000000" d="M533.344,-322.9003C533.344,-322.9003 413.8852,-322.9003 413.8852,-322.9003 407.8852,-322.9003 401.8852,-316.9003 401.8852,-310.9003 401.8852,-310.9003 401.8852,-259.4997 401.8852,-259.4997 401.8852,-253.4997 407.8852,-247.4997 413.8852,-247.4997 413.8852,-247.4997 533.344,-247.4997 533.344,-247.4997 539.344,-247.4997 545.344,-253.4997 545.344,-259.4997 545.344,-259.4997 545.344,-310.9003 545.344,-310.9003 545.344,-316.9003 539.344,-322.9003 533.344,-322.9003"/>
<text text-anchor="middle" x="473.6146" y="-306.2" font-family="Helvetica,sans-Serif" font-size="14.00" fill="#000000">gini = 0.0</text>
<text text-anchor="middle" x="473.6146" y="-289.4" font-family="Helvetica,sans-Serif" font-size="14.00" fill="#000000">samples = 6</text>
<text text-anchor="middle" x="473.6146" y="-272.6" font-family="Helvetica,sans-Serif" font-size="14.00" fill="#000000">value = [0, 6, 0, 0, 0]</text>
<text text-anchor="middle" x="473.6146" y="-255.8" font-family="Helvetica,sans-Serif" font-size="14.00" fill="#000000">class = Classical</text>
</g>
<!-- 0&#45;&gt;8 -->
<g id="edge8" class="edge">
<title>0&#45;&gt;8</title>
<path fill="none" stroke="#000000" d="M421.8575,-366.9891C429.1518,-355.4622 436.9754,-343.099 444.2744,-331.5647"/>
<polygon fill="#000000" stroke="#000000" points="447.3465,-333.2553 449.7364,-322.9335 441.4314,-329.5121 447.3465,-333.2553"/>
<text text-anchor="middle" x="455.2214" y="-343.1244" font-family="Helvetica,sans-Serif" font-size="14.00" fill="#000000">False</text>
</g>
<!-- 2 -->
<g id="node3" class="node">
<title>2</title>
<path fill="#ffffff" stroke="#000000" d="M292.344,-203.2C292.344,-203.2 172.8852,-203.2 172.8852,-203.2 166.8852,-203.2 160.8852,-197.2 160.8852,-191.2 160.8852,-191.2 160.8852,-123.2 160.8852,-123.2 160.8852,-117.2 166.8852,-111.2 172.8852,-111.2 172.8852,-111.2 292.344,-111.2 292.344,-111.2 298.344,-111.2 304.344,-117.2 304.344,-123.2 304.344,-123.2 304.344,-191.2 304.344,-191.2 304.344,-197.2 298.344,-203.2 292.344,-203.2"/>
<text text-anchor="middle" x="232.6146" y="-186.6" font-family="Helvetica,sans-Serif" font-size="14.00" fill="#000000">gender &lt;= 0.5</text>
<text text-anchor="middle" x="232.6146" y="-169.8" font-family="Helvetica,sans-Serif" font-size="14.00" fill="#000000">gini = 0.5</text>
<text text-anchor="middle" x="232.6146" y="-153" font-family="Helvetica,sans-Serif" font-size="14.00" fill="#000000">samples = 6</text>
<text text-anchor="middle" x="232.6146" y="-136.2" font-family="Helvetica,sans-Serif" font-size="14.00" fill="#000000">value = [0, 0, 3, 3, 0]</text>
<text text-anchor="middle" x="232.6146" y="-119.4" font-family="Helvetica,sans-Serif" font-size="14.00" fill="#000000">class = Dance</text>
</g>
<!-- 1&#45;&gt;2 -->
<g id="edge2" class="edge">
<title>1&#45;&gt;2</title>
<path fill="none" stroke="#000000" d="M283.7328,-238.9891C278.2383,-230.1979 272.4398,-220.9202 266.7989,-211.8949"/>
<polygon fill="#000000" stroke="#000000" points="269.7221,-209.9681 261.454,-203.3431 263.7861,-213.6781 269.7221,-209.9681"/>
</g>
<!-- 5 -->
<g id="node6" class="node">
<title>5</title>
<path fill="#ffffff" stroke="#000000" d="M453.344,-203.2C453.344,-203.2 333.8852,-203.2 333.8852,-203.2 327.8852,-203.2 321.8852,-197.2 321.8852,-191.2 321.8852,-191.2 321.8852,-123.2 321.8852,-123.2 321.8852,-117.2 327.8852,-111.2 333.8852,-111.2 333.8852,-111.2 453.344,-111.2 453.344,-111.2 459.344,-111.2 465.344,-117.2 465.344,-123.2 465.344,-123.2 465.344,-191.2 465.344,-191.2 465.344,-197.2 459.344,-203.2 453.344,-203.2"/>
<text text-anchor="middle" x="393.6146" y="-186.6" font-family="Helvetica,sans-Serif" font-size="14.00" fill="#000000">gender &lt;= 0.5</text>
<text text-anchor="middle" x="393.6146" y="-169.8" font-family="Helvetica,sans-Serif" font-size="14.00" fill="#000000">gini = 0.5</text>
<text text-anchor="middle" x="393.6146" y="-153" font-family="Helvetica,sans-Serif" font-size="14.00" fill="#000000">samples = 6</text>
<text text-anchor="middle" x="393.6146" y="-136.2" font-family="Helvetica,sans-Serif" font-size="14.00" fill="#000000">value = [3, 0, 0, 0, 3]</text>
<text text-anchor="middle" x="393.6146" y="-119.4" font-family="Helvetica,sans-Serif" font-size="14.00" fill="#000000">class = Acoustic</text>
</g>
<!-- 1&#45;&gt;5 -->
<g id="edge5" class="edge">
<title>1&#45;&gt;5</title>
<path fill="none" stroke="#000000" d="M341.8575,-238.9891C347.4206,-230.1979 353.2916,-220.9202 359.003,-211.8949"/>
<polygon fill="#000000" stroke="#000000" points="362.0248,-213.6649 364.4147,-203.3431 356.1097,-209.9217 362.0248,-213.6649"/>
</g>
<!-- 3 -->
<g id="node4" class="node">
<title>3</title>
<path fill="#39e5c5" stroke="#000000" d="M131.344,-75.3003C131.344,-75.3003 11.8852,-75.3003 11.8852,-75.3003 5.8852,-75.3003 -.1148,-69.3003 -.1148,-63.3003 -.1148,-63.3003 -.1148,-11.8997 -.1148,-11.8997 -.1148,-5.8997 5.8852,.1003 11.8852,.1003 11.8852,.1003 131.344,.1003 131.344,.1003 137.344,.1003 143.344,-5.8997 143.344,-11.8997 143.344,-11.8997 143.344,-63.3003 143.344,-63.3003 143.344,-69.3003 137.344,-75.3003 131.344,-75.3003"/>
<text text-anchor="middle" x="71.6146" y="-58.6" font-family="Helvetica,sans-Serif" font-size="14.00" fill="#000000">gini = 0.0</text>
<text text-anchor="middle" x="71.6146" y="-41.8" font-family="Helvetica,sans-Serif" font-size="14.00" fill="#000000">samples = 3</text>
<text text-anchor="middle" x="71.6146" y="-25" font-family="Helvetica,sans-Serif" font-size="14.00" fill="#000000">value = [0, 0, 3, 0, 0]</text>
<text text-anchor="middle" x="71.6146" y="-8.2" font-family="Helvetica,sans-Serif" font-size="14.00" fill="#000000">class = Dance</text>
</g>
<!-- 2&#45;&gt;3 -->
<g id="edge3" class="edge">
<title>2&#45;&gt;3</title>
<path fill="none" stroke="#000000" d="M170.3678,-110.9595C157.3021,-101.2536 143.5593,-91.0446 130.6164,-81.4299"/>
<polygon fill="#000000" stroke="#000000" points="132.3565,-78.3625 122.2419,-75.2088 128.1822,-83.9817 132.3565,-78.3625"/>
</g>
<!-- 4 -->
<g id="node5" class="node">
<title>4</title>
<path fill="#3c39e5" stroke="#000000" d="M292.344,-75.3003C292.344,-75.3003 172.8852,-75.3003 172.8852,-75.3003 166.8852,-75.3003 160.8852,-69.3003 160.8852,-63.3003 160.8852,-63.3003 160.8852,-11.8997 160.8852,-11.8997 160.8852,-5.8997 166.8852,.1003 172.8852,.1003 172.8852,.1003 292.344,.1003 292.344,.1003 298.344,.1003 304.344,-5.8997 304.344,-11.8997 304.344,-11.8997 304.344,-63.3003 304.344,-63.3003 304.344,-69.3003 298.344,-75.3003 292.344,-75.3003"/>
<text text-anchor="middle" x="232.6146" y="-58.6" font-family="Helvetica,sans-Serif" font-size="14.00" fill="#000000">gini = 0.0</text>
<text text-anchor="middle" x="232.6146" y="-41.8" font-family="Helvetica,sans-Serif" font-size="14.00" fill="#000000">samples = 3</text>
<text text-anchor="middle" x="232.6146" y="-25" font-family="Helvetica,sans-Serif" font-size="14.00" fill="#000000">value = [0, 0, 0, 3, 0]</text>
<text text-anchor="middle" x="232.6146" y="-8.2" font-family="Helvetica,sans-Serif" font-size="14.00" fill="#000000">class = HipHop</text>
</g>
<!-- 2&#45;&gt;4 -->
<g id="edge4" class="edge">
<title>2&#45;&gt;4</title>
<path fill="none" stroke="#000000" d="M232.6146,-110.9595C232.6146,-102.5477 232.6146,-93.7581 232.6146,-85.3049"/>
<polygon fill="#000000" stroke="#000000" points="236.1147,-85.2088 232.6146,-75.2088 229.1147,-85.2089 236.1147,-85.2088"/>
</g>
<!-- 6 -->
<g id="node7" class="node">
<title>6</title>
<path fill="#e58139" stroke="#000000" d="M453.344,-75.3003C453.344,-75.3003 333.8852,-75.3003 333.8852,-75.3003 327.8852,-75.3003 321.8852,-69.3003 321.8852,-63.3003 321.8852,-63.3003 321.8852,-11.8997 321.8852,-11.8997 321.8852,-5.8997 327.8852,.1003 333.8852,.1003 333.8852,.1003 453.344,.1003 453.344,.1003 459.344,.1003 465.344,-5.8997 465.344,-11.8997 465.344,-11.8997 465.344,-63.3003 465.344,-63.3003 465.344,-69.3003 459.344,-75.3003 453.344,-75.3003"/>
<text text-anchor="middle" x="393.6146" y="-58.6" font-family="Helvetica,sans-Serif" font-size="14.00" fill="#000000">gini = 0.0</text>
<text text-anchor="middle" x="393.6146" y="-41.8" font-family="Helvetica,sans-Serif" font-size="14.00" fill="#000000">samples = 3</text>
<text text-anchor="middle" x="393.6146" y="-25" font-family="Helvetica,sans-Serif" font-size="14.00" fill="#000000">value = [3, 0, 0, 0, 0]</text>
<text text-anchor="middle" x="393.6146" y="-8.2" font-family="Helvetica,sans-Serif" font-size="14.00" fill="#000000">class = Acoustic</text>
</g>
<!-- 5&#45;&gt;6 -->
<g id="edge6" class="edge">
<title>5&#45;&gt;6</title>
<path fill="none" stroke="#000000" d="M393.6146,-110.9595C393.6146,-102.5477 393.6146,-93.7581 393.6146,-85.3049"/>
<polygon fill="#000000" stroke="#000000" points="397.1147,-85.2088 393.6146,-75.2088 390.1147,-85.2089 397.1147,-85.2088"/>
</g>
<!-- 7 -->
<g id="node8" class="node">
<title>7</title>
<path fill="#e539c0" stroke="#000000" d="M614.344,-75.3003C614.344,-75.3003 494.8852,-75.3003 494.8852,-75.3003 488.8852,-75.3003 482.8852,-69.3003 482.8852,-63.3003 482.8852,-63.3003 482.8852,-11.8997 482.8852,-11.8997 482.8852,-5.8997 488.8852,.1003 494.8852,.1003 494.8852,.1003 614.344,.1003 614.344,.1003 620.344,.1003 626.344,-5.8997 626.344,-11.8997 626.344,-11.8997 626.344,-63.3003 626.344,-63.3003 626.344,-69.3003 620.344,-75.3003 614.344,-75.3003"/>
<text text-anchor="middle" x="554.6146" y="-58.6" font-family="Helvetica,sans-Serif" font-size="14.00" fill="#000000">gini = 0.0</text>
<text text-anchor="middle" x="554.6146" y="-41.8" font-family="Helvetica,sans-Serif" font-size="14.00" fill="#000000">samples = 3</text>
<text text-anchor="middle" x="554.6146" y="-25" font-family="Helvetica,sans-Serif" font-size="14.00" fill="#000000">value = [0, 0, 0, 0, 3]</text>
<text text-anchor="middle" x="554.6146" y="-8.2" font-family="Helvetica,sans-Serif" font-size="14.00" fill="#000000">class = Jazz</text>
</g>
<!-- 5&#45;&gt;7 -->
<g id="edge7" class="edge">
<title>5&#45;&gt;7</title>
<path fill="none" stroke="#000000" d="M455.8614,-110.9595C468.9271,-101.2536 482.6699,-91.0446 495.6128,-81.4299"/>
<polygon fill="#000000" stroke="#000000" points="498.047,-83.9817 503.9873,-75.2088 493.8727,-78.3625 498.047,-83.9817"/>
</g>
</g>
</svg>
